<svg width="236" height="97" viewBox="0 0 236 97" fill="none" xmlns="http://www.w3.org/2000/svg">
<path d="M14.64 2.52C19.04 2.52 22.9 3.38 26.22 5.1C29.58 6.82 32.16 9.28 33.96 12.48C35.8 15.64 36.72 19.32 36.72 23.52C36.72 27.72 35.8 31.4 33.96 34.56C32.16 37.68 29.58 40.1 26.22 41.82C22.9 43.54 19.04 44.4 14.64 44.4H0V2.52H14.64ZM14.34 37.26C18.74 37.26 22.14 36.06 24.54 33.66C26.94 31.26 28.14 27.88 28.14 23.52C28.14 19.16 26.94 15.76 24.54 13.32C22.14 10.84 18.74 9.6 14.34 9.6H8.4V37.26H14.34Z" fill="#FFFBFF"/>
<path d="M51.4078 16.32C52.4878 14.56 53.8878 13.18 55.6078 12.18C57.3678 11.18 59.3678 10.68 61.6078 10.68V19.5H59.3878C56.7478 19.5 54.7478 20.12 53.3878 21.36C52.0678 22.6 51.4078 24.76 51.4078 27.84V44.4H43.0078V11.16H51.4078V16.32Z" fill="#FFFBFF"/>
<path d="M98.6456 11.16V44.4H90.1856V40.2C89.1056 41.64 87.6856 42.78 85.9256 43.62C84.2056 44.42 82.3256 44.82 80.2856 44.82C77.6856 44.82 75.3856 44.28 73.3856 43.2C71.3856 42.08 69.8056 40.46 68.6456 38.34C67.5256 36.18 66.9656 33.62 66.9656 30.66V11.16H75.3656V29.46C75.3656 32.1 76.0256 34.14 77.3456 35.58C78.6656 36.98 80.4656 37.68 82.7456 37.68C85.0656 37.68 86.8856 36.98 88.2056 35.58C89.5256 34.14 90.1856 32.1 90.1856 29.46V11.16H98.6456Z" fill="#FFFBFF"/>
<path d="M115.334 15.96C116.414 14.44 117.894 13.18 119.774 12.18C121.694 11.14 123.874 10.62 126.314 10.62C129.154 10.62 131.714 11.32 133.994 12.72C136.314 14.12 138.134 16.12 139.454 18.72C140.814 21.28 141.494 24.26 141.494 27.66C141.494 31.06 140.814 34.08 139.454 36.72C138.134 39.32 136.314 41.34 133.994 42.78C131.714 44.22 129.154 44.94 126.314 44.94C123.874 44.94 121.714 44.44 119.834 43.44C117.994 42.44 116.494 41.18 115.334 39.66V60.24H106.934V11.16H115.334V15.96ZM132.914 27.66C132.914 25.66 132.494 23.94 131.654 22.5C130.854 21.02 129.774 19.9 128.414 19.14C127.094 18.38 125.654 18 124.094 18C122.574 18 121.134 18.4 119.774 19.2C118.454 19.96 117.374 21.08 116.534 22.56C115.734 24.04 115.334 25.78 115.334 27.78C115.334 29.78 115.734 31.52 116.534 33C117.374 34.48 118.454 35.62 119.774 36.42C121.134 37.18 122.574 37.56 124.094 37.56C125.654 37.56 127.094 37.16 128.414 36.36C129.774 35.56 130.854 34.42 131.654 32.94C132.494 31.46 132.914 29.7 132.914 27.66Z" fill="#FFFBFF"/>
<path d="M155.998 15.96C157.078 14.44 158.558 13.18 160.438 12.18C162.358 11.14 164.538 10.62 166.978 10.62C169.818 10.62 172.378 11.32 174.658 12.72C176.978 14.12 178.798 16.12 180.118 18.72C181.478 21.28 182.158 24.26 182.158 27.66C182.158 31.06 181.478 34.08 180.118 36.72C178.798 39.32 176.978 41.34 174.658 42.78C172.378 44.22 169.818 44.94 166.978 44.94C164.538 44.94 162.378 44.44 160.498 43.44C158.658 42.44 157.158 41.18 155.998 39.66V60.24H147.598V11.16H155.998V15.96ZM173.578 27.66C173.578 25.66 173.158 23.94 172.318 22.5C171.518 21.02 170.438 19.9 169.078 19.14C167.758 18.38 166.318 18 164.758 18C163.238 18 161.798 18.4 160.438 19.2C159.118 19.96 158.038 21.08 157.198 22.56C156.398 24.04 155.998 25.78 155.998 27.78C155.998 29.78 156.398 31.52 157.198 33C158.038 34.48 159.118 35.62 160.438 36.42C161.798 37.18 163.238 37.56 164.758 37.56C166.318 37.56 167.758 37.16 169.078 36.36C170.438 35.56 171.518 34.42 172.318 32.94C173.158 31.46 173.578 29.7 173.578 27.66Z" fill="#FFFBFF"/>
<path d="M235.861 27.06C235.861 28.26 235.781 29.34 235.621 30.3H211.321C211.521 32.7 212.361 34.58 213.841 35.94C215.321 37.3 217.141 37.98 219.301 37.98C222.421 37.98 224.641 36.64 225.961 33.96H235.021C234.061 37.16 232.221 39.8 229.501 41.88C226.781 43.92 223.441 44.94 219.481 44.94C216.281 44.94 213.401 44.24 210.841 42.84C208.321 41.4 206.341 39.38 204.901 36.78C203.501 34.18 202.801 31.18 202.801 27.78C202.801 24.34 203.501 21.32 204.901 18.72C206.301 16.12 208.261 14.12 210.781 12.72C213.301 11.32 216.201 10.62 219.481 10.62C222.641 10.62 225.461 11.3 227.941 12.66C230.461 14.02 232.401 15.96 233.761 18.48C235.161 20.96 235.861 23.82 235.861 27.06ZM227.161 24.66C227.121 22.5 226.341 20.78 224.821 19.5C223.301 18.18 221.441 17.52 219.241 17.52C217.161 17.52 215.401 18.16 213.961 19.44C212.561 20.68 211.701 22.42 211.381 24.66H227.161Z" fill="#FFFBFF"/>
<path d="M187.86 0.400024H196.86V39.9C196.86 42.3853 194.845 44.4 192.36 44.4C189.875 44.4 187.86 42.3853 187.86 39.9V0.400024Z" fill="#FFFBFF"/>
<path d="M197 51.5C197 53.9853 194.985 56 192.5 56C190.015 56 188 53.9853 188 51.5C188 49.0147 191 46 192.5 44C194 46 197 49.0147 197 51.5Z" fill="#FFFBFF"/>
<g clip-path="url(#clip0_36_769)">
<path d="M199.531 70.0228C196.37 65.7589 193.164 62.3093 193.132 62.275C192.968 62.0996 192.74 62 192.5 62C192.26 62 192.031 62.0995 191.868 62.275C191.836 62.3093 188.629 65.7589 185.468 70.0228C181.15 75.8471 178.961 80.3683 178.961 83.4606C178.961 90.9261 185.035 97 192.5 97C199.965 97 206.039 90.9263 206.039 83.4606C206.039 80.3683 203.849 75.8472 199.531 70.0228ZM193.852 92.6186C193.142 92.7863 192.411 92.8714 191.678 92.8714C186.468 92.8714 182.229 88.6326 182.229 83.4225C182.229 82.7043 182.45 81.4029 183.504 79.2823C183.61 79.0691 183.853 78.9634 184.082 79.031C184.31 79.0988 184.456 79.3211 184.428 79.5573C184.404 79.7613 184.391 79.9534 184.391 80.1282C184.391 85.7128 188.363 90.5639 193.836 91.6626C194.061 91.7079 194.225 91.9041 194.229 92.1339C194.233 92.364 194.076 92.5656 193.852 92.6186Z" fill="#FFFBFF"/>
<circle cx="188.39" cy="78.6631" r="2.05882" fill="#5FBFF9"/>
<circle cx="195.877" cy="87.9411" r="2.05882" fill="#5FBFF9"/>
</g>
<defs>
<clipPath id="clip0_36_769">
<rect width="35" height="35" fill="white" transform="translate(175 62)"/>
</clipPath>
</defs>
</svg>
