<svg width="257" height="332" viewBox="0 0 257 332" fill="none" xmlns="http://www.w3.org/2000/svg">
<path d="M195.125 76.102C165.14 35.6559 134.726 2.93356 134.42 2.60815C132.869 0.945066 130.699 0 128.426 0C126.152 0 123.981 0.944246 122.431 2.60815C122.127 2.93356 91.7115 35.6559 61.7268 76.102C20.7677 131.349 0 174.236 0 203.569C0 274.385 57.6113 332 128.426 332C199.241 332 256.852 274.386 256.852 203.569C256.852 174.236 236.084 131.35 195.125 76.102ZM141.252 290.439C134.52 292.03 127.58 292.838 120.627 292.838C71.207 292.838 31.0003 252.629 31.0003 203.208C31.0003 196.395 33.0978 184.05 43.0902 163.935C44.0943 161.913 46.4066 160.91 48.5713 161.551C50.7344 162.195 52.1204 164.303 51.8557 166.544C51.6262 168.479 51.5106 170.301 51.5106 171.959C51.5106 224.933 89.187 270.949 141.098 281.371C143.234 281.801 144.786 283.661 144.823 285.842C144.861 288.025 143.375 289.937 141.252 290.439Z" fill="#5FBFF9"/>
<circle cx="89.4375" cy="158.062" r="19.5294" fill="#C0E7FF"/>
<circle cx="160.455" cy="246.07" r="19.5294" fill="#C0E7FF"/>
</svg>
